<svg xmlns="http://www.w3.org/2000/svg" viewBox="0 0 256 256" role="img" aria-label="AR bold-tech monogram">
  <defs>
    <linearGradient id="bt-bg" x1="0" y1="0" x2="1" y2="1">
      <stop offset="0%" stop-color="#102a55"/>
      <stop offset="100%" stop-color="#1d4f96"/>
    </linearGradient>
    <linearGradient id="bt-accent" x1="0" y1="0" x2="1" y2="1">
      <stop offset="0%" stop-color="#67d8ff"/>
      <stop offset="100%" stop-color="#69ffd6"/>
    </linearGradient>
  </defs>
  <path d="M32 64c0-18 14-32 32-32h128c18 0 32 14 32 32v128c0 18-14 32-32 32H64c-18 0-32-14-32-32V64Z" fill="url(#bt-bg)"/>
  <path d="M224 106v86c0 18-14 32-32 32H88L224 106Z" fill="#0b1830" fill-opacity="0.32"/>
  <path d="M34 78h186" stroke="url(#bt-accent)" stroke-opacity="0.75" stroke-width="3"/>
  <path d="M58 192 95 66h24l37 126h-22l-7-29H88l-8 29H58Zm35-48h29l-13-49h-2l-14 49Z" fill="#f8fcff"/>
  <path d="M166 66h24c18 0 30 12 30 28 0 13-7 21-18 25l20 73h-23l-17-65h-16v65h-20V66Zm20 18v26h9c9 0 15-4 15-13 0-8-5-13-15-13h-9Z" fill="#f8fcff"/>
</svg>
