<svg xmlns="http://www.w3.org/2000/svg" viewBox="0 0 256 256" role="img" aria-labelledby="title desc">
  <title id="title">AR Labs Monogram</title>
  <desc id="desc">Stylized AR initials in a rounded square badge.</desc>
  <defs>
    <linearGradient id="bg" x1="0" y1="0" x2="1" y2="1">
      <stop offset="0%" stop-color="#0f2342" />
      <stop offset="55%" stop-color="#132f56" />
      <stop offset="100%" stop-color="#1d467c" />
    </linearGradient>
    <linearGradient id="glow" x1="0" y1="0" x2="1" y2="1">
      <stop offset="0%" stop-color="#66d2ff" />
      <stop offset="100%" stop-color="#7ef7d7" />
    </linearGradient>
    <filter id="soft" x="-20%" y="-20%" width="140%" height="140%">
      <feDropShadow dx="0" dy="10" stdDeviation="10" flood-color="#020711" flood-opacity="0.55" />
    </filter>
  </defs>

  <rect x="18" y="18" width="220" height="220" rx="54" fill="url(#bg)" filter="url(#soft)" />
  <rect x="22" y="22" width="212" height="212" rx="50" fill="none" stroke="url(#glow)" stroke-opacity="0.7" />

  <path d="M66 192L104 66h24l38 126h-22l-8-29H96l-8 29H66Zm35-48h30l-14-51h-2l-14 51Z" fill="#f7fbff" />
  <path d="M174 66h24c18 0 30 12 30 29 0 13-7 21-17 25l21 72h-23l-18-65h-17v65h-20V66Zm20 18v26h9c10 0 16-4 16-13 0-8-5-13-15-13h-10Z" fill="#f7fbff" />
</svg>
