<svg xmlns="http://www.w3.org/2000/svg" viewBox="0 0 256 256" role="img" aria-label="AR premium monogram">
  <defs>
    <linearGradient id="pm-bg" x1="0" y1="0" x2="1" y2="1">
      <stop offset="0%" stop-color="#0b1d3a"/>
      <stop offset="55%" stop-color="#0f2a51"/>
      <stop offset="100%" stop-color="#184172"/>
    </linearGradient>
    <linearGradient id="pm-edge" x1="0" y1="0" x2="1" y2="1">
      <stop offset="0%" stop-color="#7ad8ff"/>
      <stop offset="100%" stop-color="#9fd6ff"/>
    </linearGradient>
  </defs>
  <rect x="18" y="18" width="220" height="220" rx="56" fill="url(#pm-bg)"/>
  <rect x="22" y="22" width="212" height="212" rx="52" fill="none" stroke="url(#pm-edge)" stroke-opacity="0.72"/>
  <path d="M60 190 97 66h23l38 124h-22l-8-28H89l-8 28H60Zm34-47h30l-14-49h-2l-14 49Z" fill="#f8fbff"/>
  <path d="M168 66h24c18 0 30 12 30 29 0 13-7 21-18 25l20 70h-23l-17-63h-16v63h-20V66Zm20 18v25h9c9 0 15-4 15-13s-5-12-15-12h-9Z" fill="#f8fbff"/>
</svg>
